<svg width="24" height="24" viewBox="0 0 24 24" fill="none" xmlns="http://www.w3.org/2000/svg">
<path d="M10.1912 15.8019C10.0688 15.675 10 15.5029 10 15.3235C10 15.1441 10.0688 14.972 10.1912 14.8452L13.4237 11.4959L10.1912 8.14667C10.0722 8.01906 10.0064 7.84814 10.0079 7.67074C10.0094 7.49333 10.0781 7.32363 10.1992 7.19818C10.3202 7.07273 10.484 7.00157 10.6552 7.00003C10.8265 6.99848 10.9914 7.06668 11.1146 7.18993L14.8088 11.0175C14.9312 11.1444 15 11.3165 15 11.4959C15 11.6753 14.9312 11.8474 14.8088 11.9743L11.1146 15.8019C10.9921 15.9287 10.8261 16 10.6529 16C10.4797 16 10.3137 15.9287 10.1912 15.8019Z" fill="#007AA9"/>
</svg>
