<svg width="20" height="20" viewBox="0 0 20 20" fill="none" xmlns="http://www.w3.org/2000/svg">
<g clip-path="url(#clip0_30_792)">
<path d="M10.7833 9.99997L15.3889 5.39441C15.4799 5.28813 15.5275 5.15142 15.5221 5.0116C15.5167 4.87178 15.4587 4.73915 15.3598 4.64021C15.2608 4.54127 15.1282 4.48331 14.9884 4.47791C14.8485 4.4725 14.7118 4.52006 14.6056 4.61108L10 9.21663L5.39444 4.60552C5.28983 4.50091 5.14794 4.44214 5 4.44214C4.85205 4.44214 4.71017 4.50091 4.60555 4.60552C4.50094 4.71014 4.44217 4.85202 4.44217 4.99997C4.44217 5.14791 4.50094 5.2898 4.60555 5.39441L9.21666 9.99997L4.60555 14.6055C4.5474 14.6553 4.50016 14.7166 4.46682 14.7855C4.43347 14.8545 4.41473 14.9295 4.41178 15.006C4.40882 15.0826 4.42171 15.1589 4.44964 15.2301C4.47757 15.3014 4.51994 15.3662 4.57408 15.4203C4.62822 15.4745 4.69297 15.5168 4.76426 15.5448C4.83555 15.5727 4.91185 15.5856 4.98836 15.5826C5.06487 15.5797 5.13994 15.5609 5.20887 15.5276C5.27779 15.4942 5.33908 15.447 5.38889 15.3889L10 10.7833L14.6056 15.3889C14.7118 15.4799 14.8485 15.5274 14.9884 15.522C15.1282 15.5166 15.2608 15.4587 15.3598 15.3597C15.4587 15.2608 15.5167 15.1282 15.5221 14.9883C15.5275 14.8485 15.4799 14.7118 15.3889 14.6055L10.7833 9.99997Z" fill="#B4B4B4"/>
</g>
<defs>
<clipPath id="clip0_30_792">
<rect width="20" height="20" fill="white"/>
</clipPath>
</defs>
</svg>
