<svg width="32" height="32" viewBox="0 0 32 32" fill="none" xmlns="http://www.w3.org/2000/svg">
<path d="M30 28.5356L22.1787 20.7142C24.0582 18.4578 24.9954 15.5637 24.7954 12.6339C24.5954 9.70404 23.2736 6.9641 21.1049 4.98404C18.9362 3.00398 16.0876 1.93624 13.1518 2.00295C10.2159 2.06966 7.41872 3.26567 5.3422 5.3422C3.26567 7.41872 2.06966 10.2159 2.00295 13.1518C1.93624 16.0876 3.00398 18.9362 4.98404 21.1049C6.9641 23.2736 9.70404 24.5954 12.6339 24.7954C15.5637 24.9954 18.4578 24.0582 20.7142 22.1787L28.5356 30L30 28.5356ZM4.10837 13.4294C4.10837 11.5858 4.65503 9.78372 5.67924 8.25089C6.70344 6.71806 8.15918 5.52337 9.86237 4.81788C11.5656 4.1124 13.4397 3.92781 15.2478 4.28747C17.0559 4.64712 18.7167 5.53486 20.0203 6.83842C21.3239 8.14198 22.2116 9.80282 22.5712 11.6109C22.9309 13.419 22.7463 15.2932 22.0408 16.9963C21.3353 18.6995 20.1406 20.1553 18.6078 21.1795C17.075 22.2037 15.2729 22.7503 13.4294 22.7503C10.9581 22.7476 8.58888 21.7647 6.84145 20.0173C5.09402 18.2698 4.11111 15.9006 4.10837 13.4294Z" fill="#B4B4B4"/>
</svg>
